<svg xmlns="http://www.w3.org/2000/svg" width="2400" height="1500" viewBox="0 0 2400 1500">
<defs><marker id="ah" viewBox="0 0 12 12" refX="11" refY="6" markerWidth="11" markerHeight="11" orient="auto"><path d="M0,0 L12,6 L0,12 z" fill="#000"/></marker><marker id="ahs" viewBox="0 0 12 12" refX="1" refY="6" markerWidth="11" markerHeight="11" orient="auto-start-reverse"><path d="M0,0 L12,6 L0,12 z" fill="#000"/></marker></defs>
<rect width="2400" height="1500" fill="#fff"/>
<rect x="12" y="12" width="2376" height="1476" fill="none" stroke="#000" stroke-width="3"/>
<text x="48" y="74" font-family="Arial, Helvetica, sans-serif" font-size="46" font-weight="800" fill="#000">4 · Localised greenhouse-gas forecasting</text>
<text x="48" y="112" font-family="Arial, Helvetica, sans-serif" font-size="23" fill="#000">Engine: task1 (src/)  ·  NOAA CarbonTracker CT2026 regional CO₂ → trained forecasts judged against a benchmark</text>
<line x1="48" y1="132" x2="2352" y2="132" stroke="#000" stroke-width="2"/>
<rect x="46" y="168" width="2308" height="300" fill="none" stroke="#000" stroke-width="1.4" stroke-dasharray="3 6"/>
<rect x="60" y="154" width="130" height="26" fill="#fff"/>
<text x="70" y="174" font-family="Arial, Helvetica, sans-serif" font-size="19" font-weight="700" letter-spacing="1.5" fill="#000">A · DATA</text>
<rect x="46" y="548" width="2308" height="330" fill="none" stroke="#000" stroke-width="1.4" stroke-dasharray="3 6"/>
<rect x="60" y="534" width="356" height="26" fill="#fff"/>
<text x="70" y="554" font-family="Arial, Helvetica, sans-serif" font-size="19" font-weight="700" letter-spacing="1.5" fill="#000">B · TRAIN, FORECAST, JUDGE</text>
<rect x="46" y="954" width="2308" height="296" fill="none" stroke="#000" stroke-width="1.4" stroke-dasharray="3 6"/>
<rect x="60" y="940" width="281" height="26" fill="#fff"/>
<text x="70" y="960" font-family="Arial, Helvetica, sans-serif" font-size="19" font-weight="700" letter-spacing="1.5" fill="#000">C · ALERT AND REPORT</text>
<path d="M550.0,288.8 L605.0,288.8 L605.0,292.8 L660.0,292.8" fill="none" stroke="#000" stroke-width="2.4" marker-end="url(#ah)" stroke-linejoin="round"/>
<path d="M1140.0,292.8 L1195.0,292.8 L1195.0,293.8 L1250.0,293.8" fill="none" stroke="#000" stroke-width="2.4" marker-end="url(#ah)" stroke-linejoin="round"/>
<path d="M1840.0,292.8 L1785.0,292.8 L1785.0,293.8 L1730.0,293.8" fill="none" stroke="#000" stroke-width="2.4" stroke-dasharray="9 7" marker-end="url(#ah)" stroke-linejoin="round"/>
<path d="M1490.0,375.5 L1490.0,520.0 L310.0,520.0 L310.0,610.0" fill="none" stroke="#000" stroke-width="2.4" marker-end="url(#ah)" stroke-linejoin="round"/>
<path d="M550.0,684.8 L605.0,684.8 L605.0,670.8 L660.0,670.8" fill="none" stroke="#000" stroke-width="2.4" marker-end="url(#ah)" stroke-linejoin="round"/>
<path d="M1140.0,670.8 L1195.0,670.8 L1195.0,691.6 L1250.0,691.6" fill="none" stroke="#000" stroke-width="2.4" marker-end="url(#ah)" stroke-linejoin="round"/>
<path d="M1730.0,691.6 L1785.0,691.6 L1785.0,670.8 L1840.0,670.8" fill="none" stroke="#000" stroke-width="2.4" marker-end="url(#ah)" stroke-linejoin="round"/>
<path d="M1322.0,375.5 L1322.0,505.0 L605.0,505.0 L605.0,928.0 L450.0,928.0 L449.2,1010.0" fill="none" stroke="#000" stroke-width="2.4" stroke-dasharray="9 7" marker-end="url(#ah)" stroke-linejoin="round"/>
<path d="M2080.0,745.5 L2080.0,915.0 L1586.0,915.0 L1586.0,1010.0" fill="none" stroke="#000" stroke-width="2.4" marker-end="url(#ah)" stroke-linejoin="round"/>
<path d="M550.0,1084.8 L605.0,1084.8 L605.0,1071.3 L660.0,1071.3" fill="none" stroke="#000" stroke-width="2.4" stroke-dasharray="9 7" marker-end="url(#ah)" stroke-linejoin="round"/>
<path d="M1140.0,1071.3 L1195.0,1071.3 L1195.0,1084.8 L1250.0,1084.8" fill="none" stroke="#000" stroke-width="2.4" stroke-dasharray="9 7" marker-end="url(#ah)" stroke-linejoin="round"/>
<path d="M1730.0,1084.8 L1840.0,1084.8" fill="none" stroke="#000" stroke-width="2.4" marker-end="url(#ah)" stroke-linejoin="round"/>
<rect x="70" y="214" width="480" height="149.51999999999998" stroke="#000" fill="#fff" stroke-width="2.2" stroke-dasharray="11 7"/>
<text x="310.0" y="263.4" text-anchor="middle" font-family="Arial, Helvetica, sans-serif" font-size="25" font-weight="700" fill="#000">Source</text>
<text x="310.0" y="296.6" text-anchor="middle" font-family="Arial, Helvetica, sans-serif" font-size="21" font-weight="400" fill="#000">NOAA GML CarbonTracker CT2026</text>
<text x="310.0" y="323.5" text-anchor="middle" font-family="Arial, Helvetica, sans-serif" font-size="21" font-weight="400" fill="#000">3-hourly pbl_co2, 3° × 2° cells</text>
<text x="310.0" y="350.4" text-anchor="middle" font-family="Arial, Helvetica, sans-serif" font-size="21" font-weight="400" fill="#000">nearest cell to Noida and Ahmedabad</text>
<rect x="660" y="218" width="480" height="149.51999999999998" stroke="#000" fill="#fff" stroke-width="2.4"/>
<text x="900.0" y="267.4" text-anchor="middle" font-family="Arial, Helvetica, sans-serif" font-size="25" font-weight="700" fill="#000">Extraction</text>
<text x="900.0" y="300.6" text-anchor="middle" font-family="Arial, Helvetica, sans-serif" font-size="21" font-weight="400" fill="#000">scripts/fetch_cities.py</text>
<text x="900.0" y="327.5" text-anchor="middle" font-family="Arial, Helvetica, sans-serif" font-size="21" font-weight="400" fill="#000">8 three-hourly values → one daily mean</text>
<text x="900.0" y="354.4" text-anchor="middle" font-family="Arial, Helvetica, sans-serif" font-size="21" font-weight="400" fill="#000">no interpolation, no invented offsets</text>
<path d="M1250,228 v131.51999999999998 a240.0,16 0 0 0 480,0 v-131.51999999999998 a240.0,16 0 0 0 -480,0 z" stroke="#000" fill="#fff" stroke-width="2.4"/>
<path d="M1250,228 a240.0,16 0 0 0 480,0" fill="none" stroke="#000" stroke-width="2.4"/>
<text x="1490.0" y="276.4" text-anchor="middle" font-family="Arial, Helvetica, sans-serif" font-size="25" font-weight="700" fill="#000">City histories</text>
<text x="1490.0" y="309.6" text-anchor="middle" font-family="Arial, Helvetica, sans-serif" font-size="21" font-weight="400" fill="#000">data/cities/*.csv</text>
<text x="1490.0" y="336.5" text-anchor="middle" font-family="Arial, Helvetica, sans-serif" font-size="21" font-weight="400" fill="#000">manifest with sha256 per file</text>
<text x="1490.0" y="363.4" text-anchor="middle" font-family="Arial, Helvetica, sans-serif" font-size="21" font-weight="400" fill="#000">checked on every read</text>
<polygon points="1866,218 2320,218 2294,367.52 1840,367.52" stroke="#000" fill="#fff" stroke-width="2.4"/>
<text x="2080.0" y="267.4" text-anchor="middle" font-family="Arial, Helvetica, sans-serif" font-size="25" font-weight="700" fill="#000">Optional sensor CSV</text>
<text x="2080.0" y="300.6" text-anchor="middle" font-family="Arial, Helvetica, sans-serif" font-size="21" font-weight="400" fill="#000">date, value, optional unit</text>
<text x="2080.0" y="327.5" text-anchor="middle" font-family="Arial, Helvetica, sans-serif" font-size="21" font-weight="400" fill="#000">≥ 900 valid days over 3 years</text>
<text x="2080.0" y="354.4" text-anchor="middle" font-family="Arial, Helvetica, sans-serif" font-size="21" font-weight="400" fill="#000">CO₂ ppm or CH₄ ppb</text>
<rect x="70" y="610" width="480" height="149.51999999999998" stroke="#000" fill="#fff" stroke-width="2.4"/>
<text x="310.0" y="659.4" text-anchor="middle" font-family="Arial, Helvetica, sans-serif" font-size="25" font-weight="700" fill="#000">Chronological split</text>
<text x="310.0" y="692.6" text-anchor="middle" font-family="Arial, Helvetica, sans-serif" font-size="21" font-weight="400" fill="#000">train 72% · calibration 14% · test 14%</text>
<text x="310.0" y="719.5" text-anchor="middle" font-family="Arial, Helvetica, sans-serif" font-size="21" font-weight="400" fill="#000">in time order, targets that cross</text>
<text x="310.0" y="746.4" text-anchor="middle" font-family="Arial, Helvetica, sans-serif" font-size="21" font-weight="400" fill="#000">a boundary are excluded</text>
<rect x="660" y="596" width="480" height="149.51999999999998" stroke="#000" fill="#fff" stroke-width="2.4"/>
<rect x="667" y="603" width="466" height="135.51999999999998" fill="none" stroke="#000" stroke-width="1.4"/>
<text x="900.0" y="645.4" text-anchor="middle" font-family="Arial, Helvetica, sans-serif" font-size="25" font-weight="700" fill="#000">forecast.py: features</text>
<text x="900.0" y="678.6" text-anchor="middle" font-family="Arial, Helvetica, sans-serif" font-size="21" font-weight="400" fill="#000">lag and rolling statistics, trend,</text>
<text x="900.0" y="705.5" text-anchor="middle" font-family="Arial, Helvetica, sans-serif" font-size="21" font-weight="400" fill="#000">annual cycle, forecast horizon</text>
<text x="900.0" y="732.4" text-anchor="middle" font-family="Arial, Helvetica, sans-serif" font-size="21" font-weight="400" fill="#000">causal forward fill of at most 3 days</text>
<rect x="1250" y="590" width="480" height="203.28" stroke="#000" fill="#fff" stroke-width="2.4"/>
<rect x="1257" y="597" width="466" height="189.28" fill="none" stroke="#000" stroke-width="1.4"/>
<text x="1490.0" y="639.4" text-anchor="middle" font-family="Arial, Helvetica, sans-serif" font-size="25" font-weight="700" fill="#000">Models</text>
<text x="1490.0" y="672.6" text-anchor="middle" font-family="Arial, Helvetica, sans-serif" font-size="21" font-weight="400" fill="#000">Seasonal Ridge · Lag Ridge</text>
<text x="1490.0" y="699.5" text-anchor="middle" font-family="Arial, Helvetica, sans-serif" font-size="21" font-weight="400" fill="#000">Random forest</text>
<text x="1490.0" y="726.4" text-anchor="middle" font-family="Arial, Helvetica, sans-serif" font-size="21" font-weight="400" fill="#000">benchmarks: persistence ×2</text>
<text x="1490.0" y="753.3" text-anchor="middle" font-family="Arial, Helvetica, sans-serif" font-size="21" font-weight="400" fill="#000">auto-pick on calibration RMSE</text>
<text x="1490.0" y="780.2" text-anchor="middle" font-family="Arial, Helvetica, sans-serif" font-size="21" font-weight="400" fill="#000">7, 14 or 30 days ahead</text>
<rect x="1840" y="596" width="480" height="149.51999999999998" stroke="#000" fill="#fff" stroke-width="2.4"/>
<rect x="1840" y="596" width="14" height="149.51999999999998" fill="#000"/>
<text x="2087.0" y="645.4" text-anchor="middle" font-family="Arial, Helvetica, sans-serif" font-size="25" font-weight="700" fill="#000">Verdict</text>
<text x="2087.0" y="678.6" text-anchor="middle" font-family="Arial, Helvetica, sans-serif" font-size="21" font-weight="400" fill="#000">90% band from calibration errors</text>
<text x="2087.0" y="705.5" text-anchor="middle" font-family="Arial, Helvetica, sans-serif" font-size="21" font-weight="400" fill="#000">MAE, RMSE, coverage on the test period</text>
<text x="2087.0" y="732.4" text-anchor="middle" font-family="Arial, Helvetica, sans-serif" font-size="21" font-weight="400" fill="#000">skill = 1 − MAE / MAE persistence</text>
<rect x="70" y="1010" width="480" height="149.51999999999998" stroke="#000" fill="#fff" stroke-width="2.4"/>
<text x="310.0" y="1059.4" text-anchor="middle" font-family="Arial, Helvetica, sans-serif" font-size="25" font-weight="700" fill="#000">cities.py: review flags</text>
<text x="310.0" y="1092.6" text-anchor="middle" font-family="Arial, Helvetica, sans-serif" font-size="21" font-weight="400" fill="#000">mean + σ of the preceding 90 days</text>
<text x="310.0" y="1119.5" text-anchor="middle" font-family="Arial, Helvetica, sans-serif" font-size="21" font-weight="400" fill="#000">flag if above the review level</text>
<text x="310.0" y="1146.4" text-anchor="middle" font-family="Arial, Helvetica, sans-serif" font-size="21" font-weight="400" fill="#000">never a health warning</text>
<rect x="660" y="1010" width="480" height="122.64" stroke="#000" fill="#fff" stroke-width="2.4"/>
<text x="900.0" y="1059.4" text-anchor="middle" font-family="Arial, Helvetica, sans-serif" font-size="25" font-weight="700" fill="#000">reports.py</text>
<text x="900.0" y="1092.6" text-anchor="middle" font-family="Arial, Helvetica, sans-serif" font-size="21" font-weight="400" fill="#000">forecast CSV, portable HTML report</text>
<text x="900.0" y="1119.5" text-anchor="middle" font-family="Arial, Helvetica, sans-serif" font-size="21" font-weight="400" fill="#000">analysis zip with checksums</text>
<rect x="1250" y="1010" width="480" height="149.51999999999998" stroke="#000" fill="#fff" stroke-width="2.4"/>
<rect x="1250" y="1010" width="14" height="149.51999999999998" fill="#000"/>
<text x="1497.0" y="1059.4" text-anchor="middle" font-family="Arial, Helvetica, sans-serif" font-size="25" font-weight="700" fill="#000">Polaris sheets</text>
<text x="1497.0" y="1092.6" text-anchor="middle" font-family="Arial, Helvetica, sans-serif" font-size="21" font-weight="400" fill="#000">04 Air forecast · 05 Air alerts</text>
<text x="1497.0" y="1119.5" text-anchor="middle" font-family="Arial, Helvetica, sans-serif" font-size="21" font-weight="400" fill="#000">red banner when the model loses</text>
<text x="1497.0" y="1146.4" text-anchor="middle" font-family="Arial, Helvetica, sans-serif" font-size="21" font-weight="400" fill="#000">Noida +15.5% · Ahmedabad −52.3%</text>
<rect x="1840" y="1010" width="480" height="149.51999999999998" stroke="#000" fill="#fff" stroke-width="2.4"/>
<text x="2080.0" y="1059.4" text-anchor="middle" font-family="Arial, Helvetica, sans-serif" font-size="25" font-weight="700" fill="#000">Analyst</text>
<text x="2080.0" y="1092.6" text-anchor="middle" font-family="Arial, Helvetica, sans-serif" font-size="21" font-weight="400" fill="#000">Groq-hosted model, figures only</text>
<text x="2080.0" y="1119.5" text-anchor="middle" font-family="Arial, Helvetica, sans-serif" font-size="21" font-weight="400" fill="#000">VERDICT line it may not contradict</text>
<text x="2080.0" y="1146.4" text-anchor="middle" font-family="Arial, Helvetica, sans-serif" font-size="21" font-weight="400" fill="#000">exact context shown on the sheet</text>
<rect x="1101.0" y="264.8" width="133.0" height="24" fill="#fff"/>
<text x="1167.5" y="281.8" text-anchor="middle" font-family="Arial, Helvetica, sans-serif" font-size="18" font-style="italic" fill="#000">daily values</text>
<rect x="1096.0" y="642.8" width="143.0" height="24" fill="#fff"/>
<text x="1167.5" y="659.8" text-anchor="middle" font-family="Arial, Helvetica, sans-serif" font-size="18" font-style="italic" fill="#000">design matrix</text>
<rect x="1726.3" y="663.6" width="62.4" height="24" fill="#fff"/>
<text x="1757.5" y="680.6" text-anchor="middle" font-family="Arial, Helvetica, sans-serif" font-size="18" font-style="italic" fill="#000">bands</text>
<rect x="1763.9" y="1056.8" width="42.2" height="24" fill="#fff"/>
<text x="1785.0" y="1073.8" text-anchor="middle" font-family="Arial, Helvetica, sans-serif" font-size="18" font-style="italic" fill="#000">ask</text>
<text x="70" y="1330" text-anchor="start" font-family="Arial, Helvetica, sans-serif" font-size="22" font-weight="700" fill="#000">Data are real NOAA model estimates for a 3° × 2° cell, not a city sensor. The sheet states this and shows where the trained model loses.</text>
<text x="70" y="1372" text-anchor="start" font-family="Arial, Helvetica, sans-serif" font-size="22" font-weight="400" fill="#000">Noida: 6.80 ppm holdout MAE against 8.05 for persistence (191 targets). Ahmedabad: 8.64 against 5.67, so persistence wins.</text>
<text x="48" y="1424" font-family="Arial, Helvetica, sans-serif" font-size="17" font-weight="700" letter-spacing="1.5" fill="#000">LEGEND</text>
<rect x="48" y="1434" width="46" height="26" fill="#fff" stroke="#000" stroke-width="2"/>
<text x="104" y="1454" font-family="Arial, Helvetica, sans-serif" font-size="18" fill="#000">process</text>
<rect x="208.56" y="1434" width="46" height="26" fill="#fff" stroke="#000" stroke-width="2"/><rect x="213.56" y="1439" width="36" height="16" fill="none" stroke="#000" stroke-width="1.2"/>
<text x="264.56" y="1454" font-family="Arial, Helvetica, sans-serif" font-size="18" fill="#000">model</text>
<path d="M348.96000000000004,1442 v14 a23,5 0 0 0 46,0 v-14 a23,5 0 0 0 -46,0 z" fill="#fff" stroke="#000" stroke-width="2"/><path d="M348.96000000000004,1442 a23,5 0 0 0 46,0" fill="none" stroke="#000" stroke-width="2"/>
<text x="404.96000000000004" y="1454" font-family="Arial, Helvetica, sans-serif" font-size="18" fill="#000">data / store</text>
<polygon points="568.9200000000001,1434 605.9200000000001,1434 596.9200000000001,1460 559.9200000000001,1460" fill="#fff" stroke="#000" stroke-width="2"/>
<text x="615.9200000000001" y="1454" font-family="Arial, Helvetica, sans-serif" font-size="18" fill="#000">input</text>
<rect x="700.32" y="1434" width="46" height="26" fill="#fff" stroke="#000" stroke-width="2" stroke-dasharray="6 4"/>
<text x="756.32" y="1454" font-family="Arial, Helvetica, sans-serif" font-size="18" fill="#000">external</text>
<rect x="870.96" y="1434" width="46" height="26" fill="#fff" stroke="#000" stroke-width="2"/><rect x="870.96" y="1434" width="8" height="26" fill="#000"/>
<text x="926.96" y="1454" font-family="Arial, Helvetica, sans-serif" font-size="18" fill="#000">output</text>
<line x1="1031.44" y1="1447" x2="1081.44" y2="1447" stroke="#000" stroke-width="2.4" marker-end="url(#ah)"/><text x="1091.44" y="1454" font-family="Arial, Helvetica, sans-serif" font-size="18" fill="#000">data flow</text>
<line x1="1181.44" y1="1447" x2="1231.44" y2="1447" stroke="#000" stroke-width="2.4" stroke-dasharray="9 7" marker-end="url(#ah)"/><text x="1241.44" y="1454" font-family="Arial, Helvetica, sans-serif" font-size="18" fill="#000">optional / fallback</text>
</svg>